<svg width="26" height="26" viewBox="0 0 26 26" fill="none" xmlns="http://www.w3.org/2000/svg">
<g clip-path="url(#clip0)">
<path d="M13 5.25079C8.03242 5.25079 3.52756 7.9686 0.203437 12.383C-0.0678122 12.7447 -0.0678122 13.25 0.203437 13.6116C3.52756 18.0314 8.03242 20.7492 13 20.7492C17.9676 20.7492 22.4724 18.0314 25.7966 13.617C26.0678 13.2553 26.0678 12.75 25.7966 12.3884C22.4724 7.9686 17.9676 5.25079 13 5.25079ZM13.3563 18.4569C10.0588 18.6643 7.33569 15.9465 7.54311 12.6437C7.71331 9.92053 9.92053 7.71331 12.6437 7.54311C15.9412 7.33569 18.6643 10.0535 18.4569 13.3563C18.2814 16.0742 16.0742 18.2814 13.3563 18.4569ZM13.1915 15.9359C11.4151 16.0476 9.94712 14.5849 10.0641 12.8085C10.1545 11.3406 11.3459 10.1545 12.8138 10.0588C14.5903 9.94712 16.0582 11.4097 15.9412 13.1862C15.8455 14.6594 14.6541 15.8455 13.1915 15.9359Z" fill="#219EBC"/>
</g>
<defs>
<clipPath id="clip0">
<rect width="26" height="26" fill="white"/>
</clipPath>
</defs>
</svg>
