<svg width="34" height="34" viewBox="0 0 34 34" fill="none" xmlns="http://www.w3.org/2000/svg">
<path d="M32.9134 30.9686L24.8213 22.5525C26.9019 20.0791 28.0419 16.9672 28.0419 13.7275C28.0419 6.15827 21.8836 0 14.3144 0C6.74518 0 0.586914 6.15827 0.586914 13.7275C0.586914 21.2967 6.74518 27.455 14.3144 27.455C17.156 27.455 19.8639 26.5979 22.1791 24.9709L30.3326 33.4509C30.6734 33.8048 31.1318 34 31.623 34C32.0879 34 32.529 33.8227 32.8638 33.5004C33.5753 32.8159 33.5979 31.6807 32.9134 30.9686ZM14.3144 3.58108C19.9092 3.58108 24.4608 8.13264 24.4608 13.7275C24.4608 19.3223 19.9092 23.8739 14.3144 23.8739C8.71955 23.8739 4.168 19.3223 4.168 13.7275C4.168 8.13264 8.71955 3.58108 14.3144 3.58108Z" fill="white"/>
</svg>
